PathFileType	4	(X/Y/Z)	RBDS024\RBDS024runT45.trc
DataRate	CameraRate	NumFrames	NumMarkers	Units	OrigDataRate	OrigDataStartFrame	OrigNumFrames
150.000000	150.000000	6	32	mm	150.000000	562	4500
Frame#	Time	L.ASIS			L.Heel.Bottom			L.Heel.Lateral			L.Heel.Top			L.Iliac.Crest			L.MT5			L.PSIS			L.Shank.Bottom.Lateral			L.Shank.Bottom.Medial			L.Shank.Top.Lateral			L.Shank.Top.Medial			L.Thigh.Bottom.Lateral			L.Thigh.Bottom.Medial			L.Thigh.Top.Lateral			L.Thigh.Top.Medial			R.ASIS			R.ASY			R.Heel.Bottom			R.Heel.Lateral			R.Heel.Top			R.Iliac.Crest			R.MT1			R.MT5			R.PSIS			R.Shank.Bottom.Lateral			R.Shank.Bottom.Medial			R.Shank.Top.Lateral			R.Shank.Top.Medial			R.Thigh.Bottom.Lateral			R.Thigh.Bottom.Medial			R.Thigh.Top.Lateral			R.Thigh.Top.Medial			
		X1	Y1	Z1	X2	Y2	Z2	X3	Y3	Z3	X4	Y4	Z4	X5	Y5	Z5	X6	Y6	Z6	X7	Y7	Z7	X8	Y8	Z8	X9	Y9	Z9	X10	Y10	Z10	X11	Y11	Z11	X12	Y12	Z12	X13	Y13	Z13	X14	Y14	Z14	X15	Y15	Z15	X16	Y16	Z16	X17	Y17	Z17	X18	Y18	Z18	X19	Y19	Z19	X20	Y20	Z20	X21	Y21	Z21	X22	Y22	Z22	X23	Y23	Z23	X24	Y24	Z24	X25	Y25	Z25	X26	Y26	Z26	X27	Y27	Z27	X28	Y28	Z28	X29	Y29	Z29	X30	Y30	Z30	X31	Y31	Z31	X32	Y32	Z32	

563	3.746666666666667	2182.609719706766	970.3465266288977	900.7495411148575	1517.340061799573	237.7633798765855	1005.639939734151	1534.114484281114	225.3914250827994	957.5087335984003	1555.8721237891	255.1348450678255	993.4814739339613	2116.145846302788	1050.064428481207	858.5080832577675	1599.015841377347	79.6955908892424	917.231825239203	2012.816440535641	1032.457410486507	980.6829417618735	1645.640000218056	282.9675515796679	920.6310185389575	1620.738593945399	307.7320725689198	957.7308455265568	1687.046385326586	349.5132575510149	899.1773551823163	1664.097508578132	378.0768045189104	937.7634428075282	1920.629622658629	655.5209692573362	862.5445437443203	1878.624654354804	676.7762668774866	916.4015068318859	1954.636601148298	760.3015582320877	853.2343970939132	1920.307476048908	778.8191779901551	909.0765047415273	2200.009127966199	996.7401271360711	1123.703501513386	2331.086175818878	169.0511887062255	1085.893862533369	2142.874167120524	181.5747251357343	1048.60727470339	2170.854569191229	189.8721854637232	1098.532970400029	2165.113227927256	219.6280522521789	1051.164114127293	2131.49466484388	1072.564830873103	1186.364968368046	2352.668917123453	114.8449557868782	1038.198970537232	2311.365260535198	123.3854815770329	1145.848013877034	2020.341231684454	1029.076207948714	1083.525268383662	2242.699770798888	299.9616127636248	1117.132311039408	2211.704147634343	316.4076849076263	1073.912073944518	2260.911769985817	378.2835714787985	1131.107398065071	2230.857472359639	393.0286908327737	1089.32405848852	2319.880855281144	688.754339323819	1168.132945058366	2270.750471747433	647.4145821444398	1133.786827425893	2238.41525870311	757.3801908678889	1195.009343611243	2192.150496871932	716.2155892624776	1164.459784842553	
564	3.753333333333333	2184.6714305129	972.7367875032504	901.7466143557201	1507.877238985643	256.8424872761111	1005.600214090642	1522.855428106924	243.186668708217	957.1584328423	1547.609657215965	271.3404787339934	992.5609571664946	2121.752143312169	1052.98136848423	858.7220566532258	1576.797016156473	91.89436367886707	915.882615565893	2015.08708206128	1037.614716208273	980.0063159663542	1634.544091935626	294.853420853844	919.3440135084053	1610.731172321666	319.3970074003184	957.3969384365357	1676.993985379407	360.9492498297275	898.5746888834233	1655.219910706554	389.1791311655325	938.17609934956	1915.955975587918	662.2928794772146	863.3616180193279	1875.319016477553	683.6707452997128	918.1671767535993	1951.610372449276	766.5797254833753	854.6841451542263	1918.856150334739	785.0386804159064	911.5090164332787	2200.398340531394	1000.975543935098	1123.014891569676	2361.348138522767	165.4981460044031	1083.45334262624	2173.072429817861	162.2231840540936	1046.408908216551	2200.223069823818	172.3752773551319	1096.445119126296	2191.847476183567	202.0100240542214	1049.394151143635	2133.182383737243	1078.530083584909	1185.168320507442	2387.49151156189	114.0663030524661	1034.977735394303	2345.828795631489	117.788898819619	1142.854589407917	2022.107678901458	1034.032676190516	1082.906639316266	2262.33966800972	288.5486938087207	1115.792536671435	2230.758055729289	302.6855680316802	1072.200220580822	2274.550481843942	367.9038629497632	1130.167888372755	2243.877092775211	380.4291809119442	1088.093167729074	2317.219211403272	689.5168388958774	1167.373409547424	2266.714268064554	648.3350077076037	1134.691465844717	2237.228490439978	759.6253268067047	1194.588959839464	2189.75331124147	718.9604834631971	1165.173445246319	
565	3.76	2186.413541589479	975.2924446909699	902.5607625776364	1499.051017865718	275.9786160853477	1006.118808081575	1512.32274100394	261.4731746245686	957.3699981089146	1539.741769355207	287.8269770641862	992.3838032719494	2125.998320744618	1056.018374031613	858.986925541907	1555.978474029695	105.9413526039735	914.5543413649553	2017.068378973826	1042.489439173564	979.5242593932176	1624.286446905681	307.0576585323047	918.6523224358129	1601.588151854874	331.6268174075852	957.4400235755783	1668.148075381376	372.3327045431449	898.3489756823574	1647.589547317797	400.4779718812433	938.7294592481386	1912.638558558054	668.0894105768847	863.9403946974123	1873.087827019115	689.3837419010741	919.529767241029	1949.390677915634	772.0222270293066	855.8576613882268	1917.89696788492	790.2727911668748	913.4921216150346	2200.551676347855	1004.442012680226	1122.381597262247	2390.707090622695	163.4176130906218	1080.764417797949	2203.646717606262	144.4640550746361	1044.089950955134	2229.965352083825	156.2550422369168	1094.217534486393	2218.835081312601	185.6518040122363	1047.626556532035	2134.477727452684	1083.728968591229	1184.026262542459	2420.98185564845	115.3123306633171	1031.345181476843	2379.707906515705	113.8705580003439	1139.440663141131	2023.701449617416	1038.604173808295	1082.431503751395	2281.793390314807	277.7105428461381	1114.547209456757	2249.735954721851	289.6209130639954	1070.685145481543	2288.016513813326	357.5607091067566	1129.507312624038	2256.80336557706	367.9521502299532	1087.225226249591	2313.589475555506	688.9985891608767	1167.111588994104	2261.749079734977	648.2059191349083	1135.846645727472	2235.288909316954	760.8525202613141	1194.391992181159	2186.621704474638	720.8909540149358	1165.887331575601	
566	3.766666666666667	2187.840749471387	977.9753874445183	903.1541784518071	1490.688892467786	295.0999314232952	1007.171209572631	1502.444892061209	280.1474685077827	958.132890992377	1532.113612764479	304.565125618766	992.9568396483994	2128.840591543761	1059.22492475615	859.2881078897084	1536.712429430827	121.6666926608813	913.349327583617	2018.720794967613	1046.962055711875	979.2395176487826	1614.80829736277	319.5992369757859	918.5873025340684	1593.249561519651	344.4615033680458	957.8769896047104	1660.439047013817	383.6611689235405	898.5219614405198	1641.13077407752	411.9924086330347	939.4245491415029	1910.732736688661	672.7811336399352	864.2273813018664	1871.939744389596	693.8741349800459	920.3906126817839	1948.090049486526	776.4972856959168	856.6279797662939	1917.46768394648	794.4822058050542	914.8427627621044	2200.493682287026	1007.104257183411	1121.814297412477	2418.806801050033	162.8097795908751	1077.902840637287	2234.162260942526	128.4955818631159	1041.641087160935	2259.686921497154	141.7014206562859	1091.841951497053	2245.704293561616	170.7314870840843	1045.866307983373	2135.364860905835	1088.045427475243	1183.000561674336	2452.706928602601	118.5164807590535	1027.392778417883	2412.598553169818	111.6539930078046	1135.648404537536	2025.079156052074	1042.689852892087	1082.12365095778	2300.804396549273	267.6033432414739	1113.404919565888	2268.354396557038	277.3856926582423	1069.375449891605	2301.11406193429	347.4269448650898	1129.12486474685	2269.427837515686	355.7846298031037	1086.712138697892	2309.019355044732	687.2428775036651	1167.429827443453	2255.973922118435	647.1240758649146	1137.16211304827	2232.582123150911	761.0455069886098	1194.490948645578	2182.816756536155	722.0192092807148	1166.542557888898	
567	3.773333333333333	2188.978999534447	980.7133248907163	903.5014355134306	1482.727637260956	314.1735182450285	1008.69556224438	1493.230068607916	299.1086716536656	959.3991068465465	1524.690045884071	321.5304767233877	994.2303649139244	2130.327431997588	1062.599539864118	859.6149531292273	1519.121810198823	138.8224081260513	912.3824849541288	2020.019754430665	1050.913752944351	979.1368701404954	1606.113017256513	332.4601677545409	919.1313062231949	1585.715803211116	357.8891455963857	958.6831778441597	1653.830419014358	394.9140728517385	899.0799586993206	1635.799604013099	423.7070521085116	940.2361041030983	1910.257772159754	676.2757879874847	864.1813697777922	1871.865262526587	697.1342055730116	920.6715693321795	1947.799016878892	779.9005667490289	856.8916524885091	1917.609550167633	797.6479027422116	915.4151724950675	2200.257866159644	1008.967761590935	1121.321088034144	2445.27912171969	163.6030720406081	1074.958454985927	2264.118440111272	114.4601877739643	1039.077558600881	2288.923978600511	128.8527997291197	1089.334428787817	2272.024483962646	157.3858104319851	1044.135017205913	2135.847564704598	1091.395227533302	1182.150090541258	2482.238737734418	123.518657529443	1023.234719545817	2444.061191990996	111.0771274192671	1131.54485692497	2026.203197560836	1046.191952821799	1081.984536435991	2319.079017725976	258.3649555611292	1112.372301996109	2286.302393443979	266.1319680429207	1068.266684720655	2313.613394897446	337.6769964679842	1128.998562029919	2281.518864027425	344.1154728307905	1086.515079886673	2303.568064001626	684.3456819056731	1168.364861105567	2249.529382106569	645.2162354624435	1138.537539290801	2229.115205824534	760.2311380581275	1194.928468660092	2178.413446716718	722.3817472121898	1167.080331189469	
568	3.78	2189.871814933944	983.406214042082	903.5926541369246	1475.22294250588	333.2001398732476	1010.601687228666	1484.767428501349	318.2626232692514	961.0906248268883	1517.559774738521	338.6992683717607	996.105407955054	2130.590382865847	1066.086580831647	859.9593126173698	1503.292253087257	157.1092284258559	911.7706122837214	2020.959462506759	1054.233743765768	979.1809087484803	1598.265629283988	345.5815392855769	920.222612577345	1579.047705109375	371.8426295273006	959.7960120342814	1648.323095630145	406.0465791041914	899.97638169782	1631.589654399543	435.5668398186945	941.1150503437345	1911.191250861575	678.5210739334202	863.7806785553471	1872.831166397133	699.1829926218852	920.3247863456165	1948.57249771494	782.1613589019017	856.5838925621589	1918.356705744178	799.7673776306131	915.1187491702761	2199.880661859729	1010.072198317119	1120.909700256718	2469.758417782491	165.6402473701614	1072.033660018915	2292.960853433774	102.4237623078855	1036.440467135011	2317.15312702329	117.7754676780552	1086.737087349021	2297.315662057508	145.6925461960785	1042.469882536145	2135.942944991156	1093.73114009187	1181.522701887771	2509.175687300581	130.0520133638582	1019.006735952174	2473.635416240021	111.9759089363082	1127.225130605127	2027.043238720604	1049.022197786271	1081.989093629563	2336.292836669219	250.0972801014326	1111.454050991012	2303.251137196115	255.9761507106756	1067.340604524188	2325.257697429871	328.4708198903404	1129.084974533131	2292.829736093946	333.1210108973018	1086.564497381169	2297.329750805687	680.4546836285786	1169.896416264592	2242.571937833142	642.6309627901037	1139.872140149035	2224.922787891614	758.482832270709	1195.706829263571	2173.500705611645	722.038237760044	1167.447183429726	
